<svg id="Layer_1" data-name="Layer 1" xmlns="http://www.w3.org/2000/svg" viewBox="0 0 400 100"><title>Artboard 1mdpi</title><path d="M376.11,36c-.59-10.48-7.45-17.45-19-18-17.73-.92-35.52-.87-53.28-1.14-8.1-.13-16.21,0-24.65,0V.36c1.6-.08,2.89-.2,4.18-.2,21.78,0,43.57-.14,65.35.09a75.57,75.57,0,0,1,16.25,2.06c16.28,3.79,26.82,15.63,27.58,32.39.86,18.91.55,37.88.74,56.83,0,2.61,0,5.23,0,8.4h-6c-26.1,0-52.21.14-78.31-.09a73.57,73.57,0,0,1-18.18-2.27c-11.15-3-17.85-11.7-18.53-23.22-.31-5.12-.56-10.42.41-15.4,2.9-14.91,12.71-22.5,29.9-22.8,22.61-.38,45.22-.16,67.84-.19Zm.63,47.14V52.8c-24.87,0-49.43-.26-74,.25-4.11.09-9.63,2.45-11.9,5.62-3.87,5.39-3.27,12.61-.61,18.62,2.37,5.35,8.23,5.62,13.41,5.67,16.29.16,32.57.11,48.86.14C360.47,83.11,368.41,83.1,376.74,83.1Z"/><path d="M148.32,63.69c0,8.44,4.29,15.12,12.39,17.1a101.17,101.17,0,0,0,22.11,2.53c19.45.34,38.92.12,58.38.12h6.3v16a29.23,29.23,0,0,1-3.7.45c-23.45,0-46.9,0-70.35-.16a59,59,0,0,1-12.34-1.45c-18-4-28.17-14.91-29.61-33.4-.87-11.17-.95-22.68.79-33.69,2.77-17.51,13.83-28.42,31.49-29.62a530.54,530.54,0,0,1,63.68-.2c15.21.8,23.32,10.75,24.34,26a48.76,48.76,0,0,1-.27,10.94C249,54.09,241,62,225,62.68c-23.58.94-47.2.73-70.8,1C152.34,63.71,150.53,63.69,148.32,63.69ZM147.65,47h5.27c19.31,0,38.61.06,57.91,0a66.35,66.35,0,0,0,13.38-1.08c3.06-.66,6.83-2,8.51-4.34,4-5.51,3.26-12.1,1-18.16-1.94-5.27-7.12-6.44-11.95-6.51-17.13-.25-34.3-.65-51.4.08C155.32,17.58,145.26,25.93,147.65,47Z"/><path d="M0,.29H16V78.4c2.19-2,3.35-2.94,4.44-4C44.93,50.71,69.39,27,94,3.41A13.54,13.54,0,0,1,101.79.29c5.77-.46,11.6-.14,18.95-.14l-52.35,51,57.42,48.7c-9.22,0-16.94.13-24.66-.11-1.4,0-2.88-1.45-4.11-2.49-13.45-11.38-26.85-22.8-40.61-34.5-1.14,1-2.31,1.79-3.34,2.79-9.93,9.58-20.06,19-29.66,28.88-4,4.17-8.14,5.94-13.91,5.62-10.94-.6-9.43,1.48-9.47-9.63C0,62.48,0,34.54,0,6.6Z"/></svg>
